<?xml version="1.0" encoding="utf-8"?>
<!-- Generator: Adobe Illustrator 15.0.2, SVG Export Plug-In . SVG Version: 6.00 Build 0)  -->
<!DOCTYPE svg PUBLIC "-//W3C//DTD SVG 1.1//EN" "http://www.w3.org/Graphics/SVG/1.1/DTD/svg11.dtd">
<svg version="1.1"
	 id="svg2" xmlns:rdf="http://www.w3.org/1999/02/22-rdf-syntax-ns#" xmlns:dc="http://purl.org/dc/elements/1.1/" xmlns:svg="http://www.w3.org/2000/svg" xmlns:cc="http://creativecommons.org/ns#"
	 xmlns="http://www.w3.org/2000/svg" xmlns:xlink="http://www.w3.org/1999/xlink" x="0px" y="0px" width="333.403px"
	 height="183.973px" viewBox="0 0 333.403 183.973" enable-background="new 0 0 333.403 183.973" xml:space="preserve">
<g>
	
		<image overflow="visible" enable-background="new    " width="223" height="54" id="image1844" xlink:href="E5FEC2F6.png"  transform="matrix(0.0045 0 0 0.0185 0 0)">
	</image>
	<path id="path18" fill="#45B7C1" d="M0,183.973h333.403V0H0V183.973L0,183.973z"/>
	<g id="g2358" transform="translate(154.8501,1226.5049)">
		<path id="path2360" fill="#FFFFFF" d="M-6.773-1177.437h7.618v-12.018c0-25.645-22.428-36.053-35.515-36.053
			c-10.837,0-13.09,2.575-13.09,2.575v0.004c11.375,4.483,22.958,15.045,22.958,33.474v12.018h-7.619v6.436l-3.37,2.84l3.37,3.17
			l0.043,6.18c0,0-0.13,6.481-10.452,6.481c-5.201,0-10.946-0.966-10.946-0.966v16.051l0.113,0.796h25.539v-16.848
			c0,0,5.741,0.966,10.944,0.966c10.319,0,10.453-6.481,10.453-6.481l-0.044-6.18l-3.369-3.17l3.369-2.84V-1177.437z"/>
	</g>
	<g id="g2362" transform="translate(194.6055,1226.5049)">
		<path id="path2364" fill="#FFFFFF" d="M3.165-1177.437h7.618v-12.018c0-25.645-22.426-36.053-35.518-36.053
			c-10.835,0-13.088,2.575-13.088,2.575v0.004c11.375,4.483,22.955,15.045,22.955,33.474v12.018h-7.615v6.436l-3.37,2.84l3.37,3.17
			l0.041,6.18c0,0-0.13,6.481-10.451,6.481c-5.201,0-10.944-0.966-10.944-0.966v16.051l0.113,0.796h25.534v-16.848
			c0,0,5.743,0.966,10.945,0.966c10.322,0,10.453-6.481,10.453-6.481l-0.044-6.18l-3.368-3.17l3.368-2.84V-1177.437z"/>
	</g>
	<g id="g2366" transform="translate(234.3599,1226.5049)">
		<path id="path2368" fill="#FFFFFF" d="M13.103-1177.437h7.618v-12.018c0-25.645-22.423-36.053-35.515-36.053
			c-10.837,0-13.092,2.575-13.092,2.575v0.004c11.379,4.483,22.957,15.045,22.957,33.474v12.018h-7.621v6.436l-3.363,2.84
			l3.363,3.17l0.047,6.18c0,0-0.128,6.481-10.45,6.481c-5.202,0-10.946-0.966-10.946-0.966v16.051l0.112,0.796H-8.25v-16.848
			c0,0,5.745,0.966,10.947,0.966c10.322,0,10.451-6.481,10.451-6.481l-0.045-6.18l-3.367-3.17l3.367-2.84V-1177.437z"/>
	</g>
	<g id="g2370" transform="translate(108.4883,1254.1001)">
		<path id="path2372" fill="#FFFFFF" d="M-18.364-1239.526c0,3.546-2.877,6.422-6.424,6.422s-6.422-2.876-6.422-6.422
			s2.876-6.422,6.422-6.422S-18.364-1243.072-18.364-1239.526"/>
	</g>
	<g id="g2374" transform="translate(115.4219,1250.394)">
		<path id="path2376" fill="#FFFFFF" d="M-16.63-1231.188c0,1.85-1.499,3.348-3.35,3.348c-1.849,0-3.348-1.498-3.348-3.348
			c0-1.849,1.499-3.349,3.348-3.349C-18.129-1234.536-16.63-1233.036-16.63-1231.188"/>
	</g>
	<g id="g2378" transform="translate(120.3389,1246.5044)">
		<path id="path2380" fill="#FFFFFF" d="M-15.401-1222.436c0,1.343-1.088,2.434-2.43,2.434c-1.346,0-2.43-1.091-2.43-2.434
			c0-1.344,1.084-2.43,2.43-2.43C-16.49-1224.866-15.401-1223.779-15.401-1222.436"/>
	</g>
	<g id="g2382" transform="translate(119.8628,1242.9985)">
		<path id="path2384" fill="#FFFFFF" d="M-15.52-1214.547c0-0.674,0.545-1.217,1.213-1.217c0.674,0,1.214,0.543,1.214,1.217
			c0,0.671-0.54,1.214-1.214,1.214C-14.975-1213.333-15.52-1213.876-15.52-1214.547"/>
	</g>
	<g id="g2386" transform="translate(128.8003,1184.0894)">
		<path id="path2388" fill="#FFFFFF" d="M-13.286-1082.001v19.921h-2.603v-17.765h-9.25v17.765h-2.603v-19.921H-13.286z"/>
	</g>
	<g id="g2390" transform="translate(134.3794,1172.8105)">
		<path id="path2392" fill="#FFFFFF" d="M-11.891-1056.625c0,0.355,0.031,0.738,0.119,1.064c0.445,1.803,2.04,3.045,3.874,3.045
			c2.746,0,4.344-2.246,4.344-5.525c0-2.868-1.477-5.324-4.228-5.324c-1.774,0-3.46,1.242-3.961,3.223
			c-0.059,0.326-0.147,0.709-0.147,1.035V-1056.625z M-14.492-1060.438c0-1.834-0.03-3.31-0.116-4.672h2.335l0.146,2.456h0.059
			c1.036-1.774,2.75-2.778,5.056-2.778c3.487,0,6.087,2.926,6.087,7.27c0,5.143-3.164,7.686-6.502,7.686
			c-1.92,0-3.546-0.828-4.402-2.246h-0.062v7.773h-2.601V-1060.438z"/>
	</g>
	<g id="g2394" transform="translate(150.5063,1169.4521)">
		<path id="path2396" fill="#FFFFFF" d="M-7.859-1049.067c2.482,0,4.346-2.336,4.346-5.588c0-2.426-1.212-5.468-4.289-5.468
			c-3.042,0-4.373,2.837-4.373,5.556c0,3.133,1.771,5.5,4.285,5.5H-7.859z M-7.978-1047.118c-3.841,0-6.856-2.838-6.856-7.359
			c0-4.788,3.164-7.597,7.093-7.597c4.106,0,6.887,2.986,6.887,7.333c0,5.319-3.696,7.623-7.094,7.623H-7.978z"/>
	</g>
	<g id="g2398" transform="translate(165.5449,1169.3579)">
		<path id="path2400" fill="#FFFFFF" d="M-4.1-1048.856c2.867-0.385,4.61-2.748,4.61-5.674c0-2.959-1.743-5.23-4.61-5.619V-1048.856
			z M-6.465-1060.149c-2.866,0.389-4.61,2.749-4.61,5.676c0,2.957,1.774,5.261,4.61,5.617V-1060.149z M-4.07-1068.305l-0.03,6.354
			c4.168,0.296,7.182,2.958,7.182,7.391c0,4.699-3.164,7.182-7.182,7.478l0.03,5.587h-2.425l0.03-5.557
			c-4.136-0.267-7.184-2.896-7.184-7.33c0-4.73,3.167-7.215,7.184-7.537l-0.03-6.385H-4.07z"/>
	</g>
	<g id="g2402" transform="translate(182.0503,1168.5776)">
		<path id="path2404" fill="#FFFFFF" d="M0.026-1047.101c-0.68,0.324-2.188,0.828-4.108,0.828c-4.315,0-7.122-2.926-7.122-7.301
			c0-4.402,3.014-7.625,7.684-7.625c1.539,0,2.896,0.381,3.607,0.766l-0.593,1.981c-0.62-0.323-1.597-0.681-3.015-0.681
			c-3.279,0-5.055,2.455-5.055,5.412c0,3.307,2.129,5.35,4.967,5.35c1.477,0,2.453-0.357,3.195-0.682L0.026-1047.101z"/>
	</g>
	<g id="g2406" transform="translate(189.0977,1169.4521)">
		<path id="path2408" fill="#FFFFFF" d="M1.789-1049.067c2.482,0,4.345-2.336,4.345-5.588c0-2.426-1.211-5.468-4.289-5.468
			c-3.041,0-4.372,2.837-4.372,5.556c0,3.133,1.774,5.5,4.284,5.5H1.789z M1.67-1047.118c-3.841,0-6.859-2.838-6.859-7.359
			c0-4.788,3.165-7.597,7.093-7.597c4.11,0,6.889,2.986,6.889,7.333c0,5.319-3.696,7.623-7.091,7.623H1.67z"/>
	</g>
	<g id="g2410" transform="translate(200.7554,1184.0894)">
		<path id="path2412" fill="#FFFFFF" d="M4.703-1082.001v11.438c0,3.459,1.329,5.202,3.606,5.202c2.361,0,3.662-1.652,3.662-5.202
			v-11.438h4.494v11.172c0,6.148-3.105,9.074-8.307,9.074c-5.025,0-7.95-2.809-7.95-9.134v-11.112H4.703z"/>
	</g>
	<g id="g2414" transform="translate(221.6836,1168.1523)">
		<path id="path2416" fill="#FFFFFF" d="M9.935-1046.144l-1.806-3.604c-0.738-1.39-1.212-2.425-1.774-3.576H6.297
			c-0.415,1.151-0.918,2.187-1.568,3.576l-1.627,3.604h-5.14l5.764-10.079l-5.558-9.842H3.34l1.744,3.635
			c0.593,1.213,1.037,2.188,1.51,3.313h0.06c0.47-1.275,0.856-2.16,1.357-3.313l1.685-3.635h5.143l-5.613,9.724l5.911,10.197H9.935z
			"/>
	</g>
	<g id="g2418" transform="translate(129.6104,1128.9194)">
		<path id="path2420" fill="#FFFFFF" d="M-13.084-957.869c-3.074-3.484-6.081-6.89-9.461-10.719H-7.21v20.774
			c0.22-0.001,0.441-0.003,0.661-0.004v-1.277c-0.001-6.845,0.034-13.688-0.03-20.532c-0.015-1.529,0.588-1.867,1.99-1.867
			c31.063,0.031,62.125,0.033,93.188-0.007c1.568-0.003,2.048,0.47,2.033,2.031c-0.069,7.205-0.031,14.413,0.18,21.639
			c0.977-2.104,0.459-4.375,0.549-6.565c0.096-2.3,0.021-4.607,0.021-6.91v-7.261h15.156c-3.316,3.778-6.313,7.188-9.42,10.731
			c2.57,2.889,5.096,5.724,7.615,8.563c0.391,0.442,0.918,0.854,1.093,1.376c0.358,1.065,0.495,2.109-1.237,2.097
			c-5.594-0.035-11.188,0.009-16.781-0.049c-0.506-0.005-1.01-0.517-1.517-0.792c0.47-0.377,0.969-0.726,1.405-1.139
			c0.475-0.453,0.894-0.969,1.335-1.454c-0.493-0.438-0.962-0.911-1.495-1.296c-0.174-0.125-0.512-0.021-0.776-0.021
			c-29.68,0-59.36-0.004-89.04,0.021c-0.725,0.002-1.873,0.111-2.086,0.538c-0.44,0.882-0.652,2.093,1.066,2.271
			c0.385,0.04,0.71,0.677,1.063,1.04c-0.427,0.287-0.853,0.824-1.284,0.827c-5.724,0.058-11.45,0.053-17.175,0.009
			c-0.412-0.002-1.185-0.467-1.167-0.658c0.068-0.731,0.206-1.598,0.653-2.128c2.254-2.66,4.615-5.229,6.934-7.833
			C-13.888-956.894-13.526-957.347-13.084-957.869"/>
	</g>
	<g id="g2422" transform="translate(142.1411,1131.3223)">
		<path id="path2424" fill="#3B9EAB" d="M-9.951-963.275c0,0.482,0.067,0.941,0.199,1.373c0.131,0.434,0.321,0.813,0.566,1.137
			c0.249,0.324,0.55,0.581,0.906,0.772c0.357,0.192,0.759,0.288,1.208,0.288c0.505,0,0.948-0.101,1.325-0.305
			c0.379-0.203,0.69-0.48,0.93-0.83c0.244-0.352,0.416-0.761,0.527-1.227c0.11-0.467,0.152-0.969,0.131-1.506
			c0-0.537-0.074-1.012-0.223-1.424s-0.354-0.76-0.618-1.045c-0.262-0.285-0.568-0.502-0.921-0.65
			c-0.352-0.148-0.734-0.222-1.153-0.222c-0.458,0-0.871,0.094-1.233,0.28c-0.363,0.186-0.664,0.441-0.905,0.765
			s-0.426,0.708-0.551,1.152S-9.951-963.792-9.951-963.275 M-9.951-955.689h-0.986v-11.883h0.986v1.498h0.034
			c0.144-0.273,0.328-0.521,0.551-0.742c0.225-0.219,0.473-0.399,0.74-0.542c0.269-0.143,0.546-0.251,0.833-0.329
			c0.285-0.076,0.566-0.115,0.837-0.115c0.692,0,1.279,0.115,1.762,0.348c0.483,0.229,0.881,0.545,1.193,0.944
			c0.311,0.401,0.54,0.876,0.684,1.425c0.143,0.549,0.214,1.135,0.214,1.76c0,0.593-0.078,1.164-0.23,1.711
			c-0.155,0.549-0.388,1.029-0.7,1.441c-0.313,0.412-0.708,0.74-1.185,0.986c-0.476,0.248-1.039,0.371-1.686,0.371
			c-0.604,0-1.183-0.136-1.738-0.403c-0.554-0.269-0.99-0.666-1.309-1.192V-955.689z"/>
	</g>
	<g id="g2426" transform="translate(150.1333,1127.939)">
		<path id="path2428" fill="#3B9EAB" d="M-7.953-955.664h-0.986v-8.525h0.986v1.598h0.033c0.275-0.681,0.628-1.156,1.063-1.424
			c0.432-0.27,1.006-0.403,1.719-0.403v1.069c-0.558-0.012-1.02,0.077-1.381,0.264c-0.361,0.186-0.651,0.438-0.865,0.758
			c-0.213,0.316-0.361,0.693-0.445,1.125c-0.08,0.436-0.123,0.887-0.123,1.359V-955.664z"/>
	</g>
	<g id="g2430" transform="translate(158.7173,1131.3491)">
		<path id="path2432" fill="#3B9EAB" d="M-5.807-963.335c0-0.504-0.054-0.977-0.164-1.417c-0.11-0.438-0.28-0.819-0.511-1.143
			c-0.229-0.325-0.525-0.579-0.888-0.765c-0.364-0.187-0.808-0.28-1.333-0.28c-0.515,0-0.958,0.101-1.324,0.304
			c-0.369,0.203-0.667,0.473-0.897,0.807c-0.231,0.334-0.403,0.719-0.51,1.152c-0.11,0.434-0.165,0.88-0.165,1.342
			c0,0.525,0.064,1.012,0.19,1.455c0.125,0.445,0.309,0.826,0.55,1.146c0.242,0.317,0.543,0.565,0.906,0.739
			c0.364,0.176,0.777,0.265,1.25,0.265c0.516,0,0.958-0.102,1.325-0.306c0.368-0.203,0.667-0.473,0.896-0.814
			c0.231-0.34,0.401-0.724,0.511-1.151C-5.86-962.429-5.807-962.875-5.807-963.335 M-8.703-958.842
			c-0.548-0.013-1.062-0.11-1.538-0.298c-0.478-0.186-0.896-0.465-1.252-0.838c-0.356-0.373-0.638-0.841-0.846-1.399
			c-0.208-0.56-0.315-1.212-0.315-1.958c0-0.625,0.085-1.211,0.249-1.754c0.164-0.542,0.411-1.018,0.74-1.423
			c0.33-0.406,0.742-0.727,1.235-0.963c0.494-0.235,1.069-0.354,1.728-0.354c0.668,0,1.251,0.118,1.746,0.354
			c0.493,0.236,0.904,0.556,1.234,0.955c0.329,0.399,0.572,0.875,0.732,1.423c0.157,0.549,0.237,1.137,0.237,1.762
			c0,0.68-0.092,1.295-0.279,1.844c-0.188,0.548-0.454,1.02-0.798,1.414c-0.347,0.395-0.764,0.7-1.251,0.912
			C-7.57-958.95-8.11-958.842-8.703-958.842"/>
	</g>
	<g id="g2434" transform="translate(160.3242,1134.1011)">
		<path id="path2436" fill="#3B9EAB" d="M-5.405-969.529v-0.822h1.268v-1.35c0-0.68,0.137-1.217,0.411-1.612
			c0.275-0.396,0.741-0.591,1.397-0.591c0.154,0,0.297,0.004,0.43,0.015c0.131,0.011,0.264,0.027,0.394,0.05v0.904
			c-0.219-0.055-0.416-0.082-0.592-0.082c-0.251,0-0.449,0.048-0.591,0.141c-0.144,0.094-0.248,0.217-0.313,0.369
			c-0.066,0.154-0.109,0.326-0.124,0.52c-0.016,0.192-0.026,0.386-0.026,0.584v1.053h1.646v0.822h-1.646v7.703h-0.986v-7.703H-5.405
			z"/>
	</g>
	<g id="g2438" transform="translate(165.1294,1130.0718)">
		<path id="path2440" fill="#3B9EAB" d="M-4.204-960.462c0.152,0.735,0.431,1.253,0.832,1.557c0.401,0.3,0.974,0.451,1.72,0.451
			c0.362,0,0.675-0.044,0.939-0.131c0.262-0.088,0.478-0.207,0.648-0.354c0.17-0.149,0.299-0.316,0.388-0.504
			c0.087-0.186,0.131-0.383,0.131-0.59c0-0.418-0.134-0.729-0.404-0.931c-0.268-0.204-0.605-0.362-1.013-0.478
			c-0.405-0.116-0.845-0.215-1.313-0.297c-0.473-0.082-0.913-0.205-1.319-0.371c-0.405-0.164-0.741-0.399-1.013-0.707
			c-0.269-0.307-0.401-0.741-0.401-1.3c0-0.714,0.26-1.298,0.78-1.753c0.521-0.455,1.259-0.684,2.214-0.684
			c0.921,0,1.67,0.207,2.248,0.617c0.576,0.413,0.923,1.101,1.043,2.065H0.272c-0.087-0.657-0.337-1.121-0.749-1.39
			c-0.413-0.27-0.93-0.402-1.555-0.402s-1.103,0.133-1.431,0.402c-0.33,0.269-0.494,0.622-0.494,1.061
			c0,0.385,0.134,0.678,0.404,0.881c0.269,0.203,0.605,0.368,1.012,0.493c0.405,0.126,0.844,0.239,1.315,0.337
			c0.471,0.1,0.911,0.239,1.317,0.42c0.405,0.182,0.742,0.427,1.012,0.733c0.268,0.306,0.401,0.735,0.401,1.284
			c0,0.406-0.086,0.766-0.264,1.078c-0.174,0.313-0.415,0.572-0.723,0.779c-0.307,0.209-0.671,0.367-1.095,0.471
			c-0.422,0.105-0.885,0.156-1.39,0.156c-0.504,0-0.951-0.074-1.34-0.223c-0.392-0.147-0.724-0.354-0.997-0.616
			c-0.275-0.263-0.489-0.571-0.644-0.923c-0.154-0.35-0.241-0.729-0.264-1.135H-4.204z"/>
	</g>
	<g id="g2442" transform="translate(176.2808,1131.3491)">
		<path id="path2444" fill="#3B9EAB" d="M-1.415-963.335c0-0.504-0.056-0.977-0.164-1.417c-0.109-0.438-0.28-0.819-0.512-1.143
			c-0.229-0.325-0.525-0.579-0.887-0.765c-0.363-0.187-0.807-0.28-1.334-0.28c-0.514,0-0.958,0.101-1.324,0.304
			c-0.367,0.203-0.668,0.473-0.897,0.807c-0.231,0.334-0.401,0.719-0.511,1.152s-0.164,0.88-0.164,1.342
			c0,0.525,0.063,1.012,0.189,1.455c0.125,0.445,0.309,0.826,0.552,1.146c0.241,0.317,0.541,0.565,0.905,0.739
			c0.362,0.176,0.777,0.265,1.25,0.265c0.516,0,0.957-0.102,1.324-0.306c0.367-0.203,0.668-0.473,0.896-0.814
			c0.231-0.34,0.402-0.724,0.512-1.151C-1.471-962.429-1.415-962.875-1.415-963.335 M-4.312-958.842
			c-0.548-0.013-1.062-0.11-1.538-0.298c-0.478-0.186-0.896-0.465-1.253-0.838c-0.355-0.373-0.639-0.841-0.847-1.399
			c-0.208-0.56-0.313-1.212-0.313-1.958c0-0.625,0.083-1.211,0.247-1.754c0.164-0.542,0.412-1.018,0.74-1.423
			c0.33-0.406,0.741-0.727,1.234-0.963c0.493-0.235,1.069-0.354,1.729-0.354c0.668,0,1.251,0.118,1.744,0.354
			c0.494,0.236,0.906,0.556,1.235,0.955c0.327,0.399,0.571,0.875,0.732,1.423c0.157,0.549,0.239,1.137,0.239,1.762
			c0,0.68-0.094,1.295-0.28,1.844c-0.187,0.548-0.454,1.02-0.8,1.414c-0.344,0.395-0.763,0.7-1.25,0.912
			C-3.179-958.95-3.718-958.842-4.312-958.842"/>
	</g>
	<g id="g2446" transform="translate(183.1934,1134.7593)">
		<path id="path2448" fill="#3B9EAB" d="M0.313-971.009h0.988v8.525H0.313v-1.186c-0.132,0.154-0.28,0.314-0.444,0.479
			c-0.163,0.164-0.354,0.315-0.567,0.451c-0.214,0.139-0.464,0.254-0.748,0.348c-0.287,0.092-0.617,0.139-0.989,0.139
			c-0.569,0-1.049-0.08-1.431-0.239c-0.386-0.157-0.694-0.38-0.931-0.665c-0.236-0.286-0.406-0.617-0.511-0.996
			s-0.156-0.793-0.156-1.242v-5.613h0.986v5.597c0,0.733,0.17,1.298,0.512,1.688s0.9,0.583,1.678,0.583
			c0.407,0,0.772-0.08,1.096-0.238c0.324-0.158,0.596-0.381,0.814-0.668c0.22-0.283,0.389-0.625,0.51-1.02
			c0.121-0.394,0.182-0.828,0.182-1.3V-971.009z"/>
	</g>
	<g id="g2450" transform="translate(188.2627,1130.8887)">
		<path id="path2452" fill="#3B9EAB" d="M1.58-962.301l-2.65,3.688h-1.201l3.275-4.41l-3.012-4.115h1.219l2.352,3.391l2.42-3.391
			h1.252l-3.076,4.115l3.191,4.41H4.162L1.58-962.301z"/>
	</g>
	<path id="path2454" fill="#3B9EAB" d="M195.603,170.826h1.2v1.449h-1.2V170.826z"/>
	<g id="g2456" transform="translate(196.9663,1127.939)">
		<path id="path2458" fill="#3B9EAB" d="M3.756-955.664H2.767v-8.525h0.989v1.598h0.031c0.273-0.681,0.628-1.156,1.062-1.424
			c0.434-0.27,1.006-0.403,1.72-0.403v1.069c-0.56-0.012-1.019,0.077-1.383,0.264c-0.361,0.186-0.648,0.438-0.864,0.758
			c-0.212,0.316-0.359,0.693-0.444,1.125c-0.081,0.436-0.121,0.887-0.121,1.359V-955.664z"/>
	</g>
	<g id="g2460" transform="translate(205.1411,1134.7593)">
		<path id="path2462" fill="#3B9EAB" d="M5.799-971.009h0.989v8.525H5.799v-1.186c-0.131,0.154-0.279,0.314-0.443,0.479
			s-0.354,0.315-0.567,0.451c-0.212,0.139-0.464,0.254-0.749,0.348c-0.286,0.092-0.615,0.139-0.988,0.139
			c-0.568,0-1.049-0.08-1.43-0.239c-0.387-0.157-0.695-0.38-0.932-0.665c-0.236-0.286-0.406-0.617-0.509-0.996
			c-0.106-0.379-0.159-0.793-0.159-1.242v-5.613H1.01v5.597c0,0.733,0.17,1.298,0.512,1.688c0.34,0.39,0.898,0.583,1.677,0.583
			c0.407,0,0.772-0.08,1.097-0.238c0.323-0.158,0.594-0.381,0.813-0.668c0.221-0.283,0.39-0.625,0.512-1.02
			c0.121-0.394,0.18-0.828,0.18-1.3V-971.009z"/>
	</g>
	<g id="g2464" transform="translate(269.0532,1186.27)">
		<path id="path2466" fill="#379AA7" d="M21.777-1086.909c-0.397-1.528-1.301-2.436-2.657-2.174
			c-0.938,0.181-1.736,1.082-2.598,1.66c0.116,0.172,0.231,0.343,0.347,0.514H21.777z M-229.005-1086.856
			c-0.469-1.6-1.372-2.515-2.735-2.225c-0.929,0.196-1.706,1.105-2.55,1.695c0.116,0.176,0.235,0.352,0.355,0.529H-229.005z
			 M-12.346-1086.934H12.23c-1.748-4.416-5.011-6.177-8.701-6.256c-0.379-0.852-0.479-1.481-0.844-1.838
			c-2.721-2.66-6.957-3.194-10.403-1.381C-11.173-1094.591-12.98-1090.959-12.346-1086.934 M-215.852-1093.18
			c-4.639,0.426-7.596,2.462-8.499,6.219h24.422c0.434-4.277-1.346-7.73-4.792-9.496c-3.387-1.74-7.525-1.221-10.241,1.368
			C-215.356-1094.709-215.469-1094.031-215.852-1093.18 M10.607-1023.653c-0.379-0.678-0.672-1.26-1.016-1.813
			c-3.869-6.26-13.07-6.499-17.174-0.496c-0.383,0.56-1.203,1.056-1.875,1.143c-3.636,0.477-6.225,3.199-6.281,6.691
			c-0.027,1.427,0.313,2.084,1.986,2.074c12.222-0.076,24.447-0.036,36.67-0.043c2.238-0.001,2.971-1.084,2.226-3.223
			c-0.614-1.762-2.205-2.784-4.142-2.682c-0.396,0.021-0.973,0.137-1.172-0.07C17.199-1024.842,14.082-1024.786,10.607-1023.653
			 M-196.786-1023.676c-0.39-0.705-0.679-1.295-1.023-1.846c-3.816-6.09-12.784-6.467-16.889-0.666
			c-0.639,0.902-1.176,1.395-2.385,1.477c-3.426,0.229-5.982,3.233-6.03,6.645c-0.022,1.504,0.46,2.019,2.054,2.01
			c12.222-0.067,24.446-0.033,36.667-0.039c2.145-0.001,2.864-1.021,2.221-3.096c-0.546-1.764-2.172-2.896-4.049-2.814
			c-0.438,0.021-1.104,0.253-1.277,0.053C-190.1-1024.979-193.309-1024.702-196.786-1023.676 M14.459-1058.25
			c-10.268-1.935-18.516,4.228-17.364,13.206h66.767c0.951-6.293-1.83-10.019-7.889-10.706c-0.9-4.69-3.457-6.81-8.19-7.009
			c-0.894-0.037-1.871-0.506-2.622-1.04c-9.736-6.907-23-5.652-31.133,3.005c-0.465,0.494-0.865,1.048-1.334,1.625
			C13.443-1058.78,13.949-1058.514,14.459-1058.25 M-250.159-1058.594c-4.394-1.2-8.518-0.832-12.228,1.881
			c-3.758,2.75-5.48,6.517-5.323,11.279h71.68c1.112-5.227-2.34-8.146-6.386-8.385c-1.356-7.549-7.731-12.383-15.948-10.551
			c-0.655,0.146-1.552-0.164-2.166-0.539c-5.333-3.254-11.047-4.482-17.203-3.313c-5.753,1.093-10.456,3.95-14.253,8.612
			C-251.248-1059.2-250.705-1058.897-250.159-1058.594"/>
	</g>
	<g id="g2468" transform="translate(51.5044,1163.6187)">
		<path id="path2470" fill="#379AA7" d="M-32.61-1035.943c-0.546-0.304-1.09-0.605-1.826-1.015
			c3.797-4.663,8.499-7.521,14.254-8.614c6.155-1.168,11.87,0.061,17.202,3.315c0.614,0.375,1.511,0.685,2.167,0.538
			c8.216-1.832,14.59,3.003,15.947,10.552c4.046,0.237,7.499,3.156,6.386,8.384h-71.681c-0.157-4.764,1.566-8.529,5.324-11.279
			C-41.127-1036.777-37.003-1037.142-32.61-1035.943"/>
	</g>
	<g id="g2472" transform="translate(263.1982,1163.3433)">
		<path id="path2474" fill="#379AA7" d="M20.314-1035.324c-0.51-0.264-1.017-0.527-1.766-0.917c0.469-0.577,0.869-1.132,1.334-1.626
			c8.133-8.656,21.395-9.911,31.133-3.005c0.751,0.534,1.729,1.003,2.622,1.04c4.733,0.199,7.29,2.32,8.19,7.008
			c6.059,0.688,8.84,4.416,7.887,10.707H2.95C1.798-1031.095,10.046-1037.257,20.314-1035.324"/>
	</g>
	<g id="g2476" transform="translate(94.2021,1135.6846)">
		<path id="path2478" fill="#379AA7" d="M-21.936-973.091c3.478-1.026,6.687-1.303,9.289,1.724c0.173,0.2,0.84-0.034,1.277-0.052
			c1.876-0.084,3.502,1.048,4.049,2.813c0.644,2.074-0.076,3.096-2.22,3.096c-12.221,0.005-24.446-0.027-36.666,0.039
			c-1.595,0.008-2.078-0.506-2.055-2.01c0.049-3.41,2.604-6.416,6.03-6.646c1.208-0.08,1.746-0.572,2.385-1.475
			c4.105-5.801,13.072-5.424,16.889,0.666C-22.614-974.385-22.325-973.796-21.936-973.091"/>
	</g>
	<g id="g2480" transform="translate(260.1172,1135.666)">
		<path id="path2482" fill="#379AA7" d="M19.543-973.049c3.475-1.133,6.592-1.189,9.223,1.582c0.199,0.207,0.775,0.092,1.172,0.07
			c1.937-0.103,3.527,0.92,4.142,2.682c0.745,2.139,0.013,3.222-2.226,3.223c-12.223,0.007-24.448-0.033-36.67,0.043
			c-1.674,0.01-2.014-0.647-1.986-2.074c0.057-3.492,2.646-6.215,6.281-6.691c0.672-0.087,1.492-0.583,1.875-1.143
			c4.104-6.003,13.305-5.764,17.174,0.496C18.872-974.309,19.164-973.727,19.543-973.049"/>
	</g>
	<g id="g2484" transform="translate(78.9502,1191.2871)">
		<path id="path2486" fill="#379AA7" d="M-25.749-1098.197c0.383-0.851,0.495-1.529,0.89-1.909
			c2.716-2.589,6.854-3.108,10.241-1.368c3.446,1.766,5.227,5.217,4.792,9.496h-24.422
			C-33.345-1095.735-30.387-1097.771-25.749-1098.197"/>
	</g>
	<g id="g2488" transform="translate(241.7544,1186.291)">
		<path id="path2490" fill="#379AA7" d="M14.953-1086.955c-0.635-4.025,1.172-7.657,4.629-9.476c3.444-1.813,7.682-1.278,10.4,1.381
			c0.367,0.357,0.467,0.986,0.847,1.838c3.69,0.079,6.952,1.84,8.701,6.256H14.953z"/>
	</g>
	<g id="g2492" transform="translate(68.4272,1186.2285)">
		<path id="path2494" fill="#379AA7" d="M-28.379-1086.814h-4.93c-0.12-0.177-0.239-0.354-0.355-0.53
			c0.844-0.591,1.621-1.497,2.55-1.695C-29.751-1089.328-28.848-1088.414-28.379-1086.814"/>
	</g>
	<g id="g2496" transform="translate(269.0532,1186.27)">
		<path id="path2498" fill="#379AA7" d="M21.777-1086.909h-4.908c-0.115-0.171-0.23-0.342-0.347-0.514
			c0.861-0.578,1.659-1.479,2.598-1.66C20.477-1089.344,21.38-1088.437,21.777-1086.909"/>
	</g>
	<g id="g2500" transform="translate(268.8335,1186.4951)">
		<path id="path2502" fill="#FFFFFF" d="M21.723-1087.415c-0.397-1.528-1.302-2.436-2.657-2.174c-0.939,0.182-1.736,1.082-2.6,1.66
			c0.117,0.172,0.231,0.343,0.348,0.514H21.723z M-229.06-1087.362c-0.469-1.6-1.373-2.515-2.735-2.225
			c-0.929,0.195-1.708,1.105-2.55,1.695c0.116,0.176,0.235,0.354,0.355,0.529H-229.06z M-12.401-1087.44h24.578
			c-1.75-4.416-5.012-6.177-8.701-6.256c-0.381-0.852-0.48-1.481-0.846-1.838c-2.72-2.66-6.956-3.194-10.402-1.381
			C-11.228-1095.097-13.035-1091.466-12.401-1087.44 M-215.906-1093.687c-4.639,0.426-7.596,2.462-8.499,6.219h24.423
			c0.434-4.278-1.346-7.729-4.792-9.496c-3.388-1.74-7.525-1.221-10.241,1.368C-215.411-1095.216-215.524-1094.537-215.906-1093.687
			 M10.552-1024.159c-0.378-0.678-0.672-1.26-1.016-1.813c-3.87-6.26-13.07-6.499-17.174-0.496c-0.383,0.56-1.202,1.056-1.875,1.143
			c-3.635,0.477-6.224,3.199-6.281,6.691c-0.025,1.427,0.313,2.084,1.988,2.074c12.221-0.076,24.445-0.036,36.67-0.043
			c2.236-0.001,2.97-1.082,2.225-3.223c-0.613-1.762-2.207-2.785-4.142-2.682c-0.397,0.021-0.974,0.137-1.173-0.07
			C17.146-1025.349,14.027-1025.292,10.552-1024.159 M-196.843-1024.184c-0.389-0.704-0.677-1.292-1.021-1.845
			c-3.816-6.09-12.784-6.468-16.889-0.666c-0.639,0.902-1.176,1.395-2.385,1.477c-3.426,0.229-5.982,3.232-6.03,6.645
			c-0.022,1.504,0.46,2.019,2.054,2.01c12.221-0.067,24.445-0.033,36.666-0.039c2.145-0.001,2.864-1.021,2.222-3.096
			c-0.546-1.764-2.173-2.896-4.049-2.814c-0.439,0.021-1.104,0.254-1.278,0.053
			C-190.156-1025.485-193.364-1025.208-196.843-1024.184 M14.403-1058.756c-10.268-1.935-18.515,4.228-17.365,13.206h66.768
			c0.951-6.293-1.83-10.019-7.889-10.706c-0.899-4.69-3.456-6.81-8.191-7.009c-0.893-0.037-1.869-0.506-2.621-1.04
			c-9.736-6.907-23-5.652-31.132,3.007c-0.466,0.492-0.865,1.047-1.334,1.623C13.389-1059.286,13.896-1059.021,14.403-1058.756
			 M-250.214-1059.101c-4.394-1.2-8.519-0.833-12.228,1.881c-3.757,2.75-5.48,6.516-5.322,11.279h71.68
			c1.113-5.227-2.34-8.146-6.386-8.385c-1.356-7.547-7.731-12.383-15.947-10.551c-0.655,0.146-1.553-0.164-2.167-0.539
			c-5.333-3.254-11.047-4.482-17.204-3.313c-5.752,1.094-10.455,3.95-14.252,8.612
			C-251.303-1059.706-250.76-1059.403-250.214-1059.101"/>
	</g>
	<g id="g2504" transform="translate(51.2847,1163.8438)">
		<path id="path2506" fill="#FFFFFF" d="M-32.665-1036.449c-0.546-0.304-1.09-0.605-1.826-1.016
			c3.797-4.662,8.499-7.52,14.252-8.611c6.156-1.17,11.871,0.059,17.204,3.313c0.614,0.375,1.511,0.685,2.166,0.538
			c8.216-1.832,14.59,3.003,15.946,10.552c4.048,0.237,7.5,3.156,6.388,8.384h-71.681c-0.158-4.764,1.566-8.529,5.324-11.279
			C-41.184-1037.283-37.059-1037.648-32.665-1036.449"/>
	</g>
	<g id="g2508" transform="translate(262.9785,1163.5684)">
		<path id="path2510" fill="#FFFFFF" d="M20.258-1035.83c-0.508-0.264-1.016-0.528-1.765-0.917c0.469-0.577,0.868-1.132,1.334-1.625
			c8.132-8.657,21.396-9.913,31.132-3.005c0.752,0.533,1.729,1.002,2.621,1.039c4.736,0.199,7.292,2.32,8.191,7.008
			c6.059,0.688,8.84,4.416,7.889,10.707H2.893C1.743-1031.602,9.991-1037.764,20.258-1035.83"/>
	</g>
	<g id="g2512" transform="translate(93.9819,1135.9097)">
		<path id="path2514" fill="#FFFFFF" d="M-21.99-973.597c3.477-1.025,6.686-1.303,9.29,1.724c0.174,0.2,0.839-0.034,1.276-0.053
			c1.877-0.083,3.502,1.049,4.05,2.813c0.642,2.075-0.078,3.096-2.222,3.096c-12.221,0.005-24.445-0.027-36.666,0.039
			c-1.595,0.008-2.078-0.506-2.055-2.01c0.049-3.41,2.604-6.416,6.031-6.646c1.208-0.08,1.745-0.573,2.385-1.475
			c4.105-5.801,13.072-5.424,16.889,0.665C-22.668-974.891-22.379-974.302-21.99-973.597"/>
	</g>
	<g id="g2516" transform="translate(259.8975,1135.8911)">
		<path id="path2518" fill="#FFFFFF" d="M19.488-973.555c3.476-1.133,6.594-1.189,9.223,1.582c0.199,0.207,0.775,0.092,1.173,0.07
			c1.935-0.104,3.528,0.92,4.142,2.682c0.744,2.141,0.012,3.222-2.225,3.223c-12.225,0.007-24.449-0.033-36.67,0.043
			c-1.676,0.01-2.014-0.647-1.988-2.074c0.058-3.492,2.647-6.215,6.281-6.691c0.673-0.087,1.492-0.583,1.875-1.143
			c4.104-6.003,13.304-5.764,17.174,0.496C18.816-974.815,19.11-974.233,19.488-973.555"/>
	</g>
	<g id="g2520" transform="translate(78.7305,1191.5122)">
		<path id="path2522" fill="#FFFFFF" d="M-25.803-1098.704c0.382-0.851,0.495-1.529,0.89-1.91c2.716-2.588,6.854-3.107,10.241-1.367
			c3.446,1.766,5.226,5.217,4.792,9.495h-24.422C-33.399-1096.242-30.442-1098.278-25.803-1098.704"/>
	</g>
	<g id="g2524" transform="translate(241.5347,1186.5161)">
		<path id="path2526" fill="#FFFFFF" d="M14.897-1087.461c-0.633-4.025,1.173-7.657,4.629-9.476
			c3.445-1.813,7.683-1.279,10.401,1.381c0.366,0.357,0.466,0.986,0.847,1.838c3.688,0.079,6.952,1.84,8.701,6.256H14.897z"/>
	</g>
	<g id="g2528" transform="translate(68.2075,1186.4536)">
		<path id="path2530" fill="#FFFFFF" d="M-28.434-1087.321h-4.93c-0.12-0.177-0.239-0.354-0.355-0.53
			c0.843-0.591,1.622-1.497,2.55-1.695C-29.807-1089.834-28.903-1088.92-28.434-1087.321"/>
	</g>
	<g id="g2532" transform="translate(268.8335,1186.4951)">
		<path id="path2534" fill="#FFFFFF" d="M21.723-1087.415h-4.909c-0.116-0.171-0.23-0.342-0.348-0.514
			c0.863-0.578,1.66-1.479,2.6-1.66C20.421-1089.851,21.325-1088.943,21.723-1087.415"/>
	</g>
	<g id="g2536" transform="translate(101.4316,1220.0034)">
		<path id="path2538" fill="#E12C2C" d="M-20.128-1162.809c-7.531,2.003-9.428,7.663-9.734,14.59
			c-4.451-5.104-9.829-4.388-15.306-3.25c2.604-1.671,5.471-2.062,8.445-2.021c1.05,0.015,2.189,0.269,3.127-0.05
			c0.928-0.314,2.214-1.098,2.377-1.877c0.599-2.854,2.53-4.397,4.832-5.6c1.82-0.95,3.784-1.626,5.684-2.425
			C-20.511-1163.231-20.32-1163.02-20.128-1162.809"/>
	</g>
	<g id="g2540">
		<g id="g2542">
		</g>
		<g id="g2548">
			<g>
				<defs>
					<rect id="SVGID_1_" x="51.744" y="45.587" width="6.806" height="8"/>
				</defs>
				<clipPath id="SVGID_2_">
					<use xlink:href="#SVGID_1_"  overflow="visible"/>
				</clipPath>
				<g id="g2550" opacity="0.5" clip-path="url(#SVGID_2_)">
					<g id="g2552" transform="translate(83.228,1229.293)">
						<path id="path2554" fill="#E12C2C" d="M-24.679-1183.71c-0.289,3.106-0.518,5.531-0.72,7.729
							c-1.781,0.08-3.893,0.176-6.085,0.276c0.976-0.435,1.987-0.96,3.047-1.332c1.151-0.404,1.729-0.911,1.874-2.328
							C-26.428-1180.711-25.473-1181.978-24.679-1183.71"/>
					</g>
				</g>
			</g>
		</g>
	</g>
	<g enable-background="new    ">
		<path fill="#231F20" d="M110.644,147.229h-8.394v-1.254l4.244-5.061c0.755-0.916,1.268-1.645,1.537-2.187
			c0.27-0.542,0.404-1.088,0.404-1.639c0-0.625-0.183-1.138-0.548-1.536c-0.365-0.4-0.87-0.6-1.513-0.6
			c-0.799,0-1.407,0.244-1.825,0.733s-0.627,1.099-0.627,1.829h-1.764l-0.019-0.055c-0.031-1.103,0.337-2.035,1.105-2.801
			c0.768-0.764,1.811-1.146,3.129-1.146c1.207,0,2.157,0.334,2.851,1.003s1.04,1.532,1.04,2.591c0,0.712-0.197,1.408-0.59,2.09
			c-0.393,0.68-0.992,1.535-1.797,2.563l-3.408,3.992l0.019,0.047h6.156V147.229z"/>
	</g>
	<g enable-background="new    ">
		<path fill="#231F20" d="M116.939,139.54c0.817,0,1.394-0.202,1.731-0.608c0.337-0.404,0.506-0.973,0.506-1.703
			c0-0.682-0.185-1.23-0.553-1.648s-0.915-0.627-1.639-0.627c-0.706,0-1.29,0.219-1.75,0.654c-0.461,0.438-0.692,0.983-0.692,1.639
			h-1.746l-0.028-0.055c-0.031-1.016,0.353-1.883,1.151-2.6c0.799-0.719,1.82-1.078,3.064-1.078c1.256,0,2.241,0.317,2.953,0.952
			c0.712,0.634,1.068,1.567,1.068,2.8c0,0.631-0.166,1.207-0.497,1.727s-0.794,0.926-1.388,1.217c0.681,0.272,1.2,0.686,1.556,1.239
			s0.534,1.224,0.534,2.011c0,1.238-0.392,2.208-1.174,2.91c-0.783,0.703-1.8,1.055-3.05,1.055c-1.151,0-2.165-0.34-3.041-1.018
			s-1.299-1.573-1.268-2.688l0.019-0.056h1.746c0,0.656,0.237,1.208,0.71,1.657s1.085,0.674,1.834,0.674
			c0.743,0,1.328-0.23,1.755-0.692c0.427-0.461,0.641-1.063,0.641-1.806c0-0.848-0.197-1.482-0.59-1.904
			c-0.393-0.42-1.01-0.631-1.852-0.631h-1.504v-1.421H116.939z"/>
	</g>
	<text transform="matrix(1 0 0 1 122.27 147.2285)" fill="#231F20" font-family="'Roboto-Regular'" font-size="19.0165"> </text>
	<g enable-background="new    ">
		<path fill="#231F20" d="M134.488,147.229c-0.062-0.303-0.11-0.571-0.144-0.803c-0.034-0.232-0.055-0.467-0.061-0.701
			c-0.34,0.482-0.785,0.887-1.333,1.211c-0.548,0.326-1.137,0.488-1.769,0.488c-1.046,0-1.843-0.268-2.391-0.804
			c-0.548-0.535-0.822-1.273-0.822-2.214c0-0.96,0.388-1.711,1.165-2.252c0.777-0.542,1.831-0.813,3.162-0.813h1.987v-0.994
			c0-0.588-0.18-1.054-0.539-1.396c-0.359-0.344-0.867-0.516-1.523-0.516c-0.594,0-1.074,0.148-1.439,0.445
			s-0.548,0.653-0.548,1.068l-1.736,0.018l-0.019-0.055c-0.043-0.73,0.298-1.399,1.026-2.006c0.728-0.607,1.667-0.91,2.818-0.91
			c1.139,0,2.055,0.289,2.749,0.868s1.04,1.413,1.04,2.503v4.837c0,0.359,0.019,0.706,0.056,1.04s0.105,0.662,0.205,0.984H134.488z
			 M131.452,145.892c0.662,0,1.26-0.171,1.792-0.511s0.879-0.73,1.04-1.17v-1.635h-2.052c-0.737,0-1.326,0.186-1.769,0.558
			c-0.443,0.371-0.664,0.808-0.664,1.31c0,0.445,0.139,0.798,0.418,1.059C130.496,145.762,130.907,145.892,131.452,145.892z"/>
	</g>
	<g enable-background="new    ">
		<path fill="#231F20" d="M146.916,147.229h-1.829v-8.598h-4.485v8.598h-1.83v-10.047h8.144V147.229z"/>
	</g>
	<g enable-background="new    ">
		<path fill="#231F20" d="M158.136,142.586c0,1.448-0.347,2.617-1.04,3.505c-0.693,0.889-1.65,1.333-2.869,1.333
			c-0.619,0-1.163-0.104-1.63-0.312c-0.467-0.207-0.865-0.519-1.193-0.933v4.912h-1.83v-13.91h1.402l0.288,1.3
			c0.328-0.482,0.737-0.851,1.226-1.104c0.489-0.254,1.058-0.381,1.708-0.381c1.244,0,2.211,0.494,2.901,1.48
			c0.69,0.988,1.036,2.293,1.036,3.914V142.586z M156.306,142.391c0-1.139-0.224-2.075-0.673-2.809
			c-0.449-0.733-1.11-1.101-1.982-1.101c-0.526,0-0.975,0.12-1.347,0.358c-0.371,0.238-0.672,0.564-0.9,0.979v4.856
			c0.229,0.415,0.529,0.738,0.9,0.971c0.372,0.231,0.827,0.349,1.365,0.349c0.866,0,1.522-0.318,1.968-0.952
			c0.446-0.635,0.668-1.453,0.668-2.456V142.391z"/>
	</g>
	<g enable-background="new    ">
		<path fill="#231F20" d="M164.535,147.424c-1.442,0-2.567-0.461-3.375-1.384c-0.808-0.923-1.211-2.136-1.211-3.64v-0.408
			c0-1.443,0.416-2.637,1.249-3.58s1.85-1.416,3.05-1.416c1.343,0,2.351,0.418,3.022,1.254c0.672,0.836,1.008,1.946,1.008,3.333
			v0.966h-6.425l-0.028,0.047c0,1.008,0.223,1.827,0.668,2.455c0.446,0.629,1.126,0.943,2.043,0.943
			c0.619,0,1.162-0.089,1.629-0.266c0.467-0.176,0.868-0.419,1.202-0.729l0.715,1.188c-0.358,0.347-0.832,0.64-1.42,0.878
			C166.073,147.305,165.364,147.424,164.535,147.424z M164.247,138.436c-0.638,0-1.165,0.246-1.583,0.738s-0.673,1.121-0.766,1.889
			l0.019,0.047h4.531v-0.148c0-0.73-0.18-1.334-0.539-1.811S164.996,138.436,164.247,138.436z"/>
	</g>
	<g enable-background="new    ">
		<path fill="#231F20" d="M178.464,137.182v10.047h-1.829v-8.598h-3.398v2.841c0,1.981-0.263,3.436-0.789,4.364
			c-0.526,0.928-1.424,1.393-2.693,1.393h-0.52l0.037-1.561l0.381-0.009c0.649,0,1.104-0.317,1.36-0.952
			c0.257-0.634,0.385-1.713,0.385-3.235v-4.29H178.464z"/>
	</g>
	<g enable-background="new    ">
		<path fill="#231F20" d="M188.887,137.182v10.047h-1.829v-3.9h-2.479l-2.377,3.9h-1.969l2.545-4.169
			c-0.638-0.229-1.129-0.591-1.472-1.087c-0.344-0.494-0.516-1.067-0.516-1.717c0-0.904,0.343-1.643,1.026-2.215
			s1.626-0.859,2.827-0.859H188.887z M182.629,140.273c0,0.445,0.151,0.826,0.455,1.143c0.303,0.315,0.758,0.474,1.365,0.474h2.608
			v-3.287h-2.414c-0.663,0-1.163,0.165-1.505,0.497C182.799,139.43,182.629,139.822,182.629,140.273z"/>
	</g>
	<g enable-background="new    ">
		<path fill="#E12C2C" d="M205.267,147.229h-9.396v-2.043l4.159-4.568c0.558-0.631,0.966-1.194,1.226-1.689
			c0.261-0.496,0.391-0.926,0.391-1.291c0-0.525-0.118-0.942-0.354-1.249c-0.235-0.306-0.612-0.46-1.133-0.46
			c-0.488,0-0.868,0.2-1.137,0.6c-0.27,0.398-0.404,0.908-0.404,1.527h-3.073l-0.019-0.056c-0.031-1.251,0.381-2.311,1.234-3.181
			c0.854-0.869,1.987-1.305,3.398-1.305c1.479,0,2.622,0.364,3.427,1.092c0.805,0.727,1.207,1.729,1.207,3.004
			c0,0.854-0.223,1.61-0.669,2.27c-0.445,0.66-1.263,1.633-2.451,2.92l-1.644,1.969l0.019,0.047h5.219V147.229z"/>
	</g>
	<g enable-background="new    ">
		<path fill="#E12C2C" d="M216.156,142.261c0,1.616-0.431,2.88-1.291,3.793s-1.996,1.37-3.407,1.37c-1.424,0-2.566-0.457-3.427-1.37
			s-1.291-2.177-1.291-3.793v-3.584c0-1.616,0.428-2.88,1.282-3.793c0.854-0.913,1.993-1.37,3.417-1.37
			c1.411,0,2.55,0.459,3.417,1.375c0.866,0.916,1.3,2.179,1.3,3.788V142.261z M213.027,138.463c0-0.823-0.142-1.451-0.423-1.885
			c-0.282-0.434-0.67-0.65-1.165-0.65c-0.502,0-0.889,0.217-1.161,0.65s-0.408,1.062-0.408,1.885v3.993
			c0,0.842,0.138,1.478,0.413,1.907c0.275,0.432,0.667,0.646,1.175,0.646c0.495,0,0.88-0.215,1.155-0.646
			c0.275-0.43,0.414-1.065,0.414-1.907V138.463z"/>
	</g>
	<g enable-background="new    ">
		<path fill="#E12C2C" d="M224.743,147.229h-3.139v-10.836h-2.721v-2.396l5.859-0.482V147.229z"/>
	</g>
	<g enable-background="new    ">
		<path fill="#E12C2C" d="M234.305,133.514c0.52,0,0.984,0.045,1.393,0.135s0.863,0.234,1.365,0.432l-0.529,2.285
			c-0.434-0.131-0.808-0.229-1.124-0.293c-0.315-0.064-0.678-0.098-1.086-0.098c-0.768,0-1.384,0.273-1.848,0.822
			c-0.465,0.547-0.696,1.359-0.696,2.438v0.129c0.347-0.34,0.766-0.604,1.258-0.789s1.051-0.278,1.676-0.278
			c1.158,0,2.054,0.421,2.688,1.263s0.951,1.938,0.951,3.287c0,1.331-0.442,2.427-1.327,3.287c-0.886,0.86-2.021,1.291-3.408,1.291
			c-1.485,0-2.685-0.486-3.598-1.458s-1.37-2.303-1.37-3.993v-2.721c0-1.782,0.528-3.185,1.584-4.206
			C231.289,134.025,232.646,133.514,234.305,133.514z M233.665,140.691c-0.446,0-0.826,0.059-1.143,0.177
			c-0.315,0.118-0.563,0.284-0.742,0.501v0.604c0,0.979,0.16,1.729,0.482,2.252s0.773,0.785,1.355,0.785
			c0.471,0,0.854-0.209,1.151-0.627c0.298-0.418,0.446-0.93,0.446-1.537c0-0.681-0.143-1.21-0.428-1.588
			C234.503,140.881,234.128,140.691,233.665,140.691z"/>
	</g>
</g>
</svg>
