<?xml version="1.0" encoding="utf-8"?>
<!-- Generator: Adobe Illustrator 20.1.0, SVG Export Plug-In . SVG Version: 6.00 Build 0)  -->
<svg version="1.1" id="Layer_1" xmlns="http://www.w3.org/2000/svg" xmlns:xlink="http://www.w3.org/1999/xlink" x="0px" y="0px"
	 width="177px" height="38px" viewBox="0 0 177 38" style="enable-background:new 0 0 177 38;" xml:space="preserve">
<style type="text/css">
	.st0{fill:#088EAF;}
</style>
<g>
	<path id="_Compound_Path__1_" class="st0" d="M175.3,6.7c-2.3,2.2-6.3,5.9-10.7,10.1c-3.8-3.5-7-6.5-9.2-8.5c4.6,0,6.5,0,11.3,0
		c0,0,0-1-0.6-1H153c-0.2,0,0.7,1.5,0.8,1.6c2.6,2.5,5.7,5.6,9.5,9.2L152.9,28c-0.3,0.3,1.9,2.6,2,2.5l10.8-10.3
		c5.6,5.4,10.6,10.2,11.1,10.7c0,0,0.2,0.1,0.2,0v-22C177,8.7,175.5,6.5,175.3,6.7z M176.6,28.2c-0.1-0.2-4.7-4.4-9.8-9.2
		c4.1-3.9,7.9-6.7,9.8-8.5C176.6,16.7,176.8,28.4,176.6,28.2z"/>
	<g>
		<path id="_Compound_Path_2_1_" d="M17.2,23.3c0,0.9-0.2,1.7-0.6,2.5c-0.4,0.8-1,1.4-1.6,1.9c-0.8,0.6-1.7,1-2.7,1.2
			c-1.2,0.3-2.4,0.4-3.6,0.4c-1.1,0-2.2-0.1-3.2-0.3c-0.9-0.2-1.7-0.4-2.5-0.9c-0.7-0.4-1.4-0.9-1.9-1.6C0.6,25.9,0.2,25,0,24.1
			l2.6-0.6c0.1,0.7,0.4,1.3,0.8,1.9c0.3,0.5,0.8,0.9,1.3,1.2c0.6,0.3,1.2,0.5,1.8,0.6c0.7,0.1,1.5,0.2,2.2,0.1
			c0.8,0,1.6-0.1,2.3-0.2c0.7-0.1,1.3-0.3,1.9-0.7c0.5-0.3,0.9-0.7,1.2-1.2c0.3-0.5,0.5-1.1,0.4-1.7c0-0.6-0.2-1.2-0.6-1.7
			c-0.4-0.5-0.9-0.8-1.5-1.1c-0.7-0.3-1.4-0.6-2.2-0.7c-0.8-0.2-1.7-0.4-2.6-0.6c-0.9-0.2-1.7-0.4-2.5-0.7c-0.8-0.2-1.5-0.6-2.2-1
			c-0.6-0.4-1.2-0.9-1.6-1.5c-0.4-0.7-0.6-1.5-0.6-2.3c-0.1-1.6,0.7-3.2,2-4.1c1.8-1.1,3.9-1.7,6-1.5c0.9,0,1.9,0.1,2.8,0.3
			C12.5,8.7,13.3,9,14,9.4c1.4,0.8,2.4,2.3,2.7,3.9l-2.5,0.3c-0.1-0.6-0.3-1.1-0.7-1.6c-0.3-0.4-0.7-0.7-1.2-1
			c-0.5-0.3-1-0.5-1.6-0.6c-0.6-0.1-1.2-0.2-1.8-0.2c-1.4-0.1-2.8,0.2-4,0.9c-0.8,0.5-1.4,1.4-1.4,2.4c0,0.6,0.2,1.1,0.5,1.5
			c0.3,0.4,0.8,0.8,1.3,1c0.6,0.3,1.3,0.5,1.9,0.7c0.8,0.2,1.6,0.4,2.5,0.6c0.9,0.2,1.8,0.4,2.7,0.7c0.9,0.2,1.7,0.6,2.4,1
			c0.7,0.4,1.3,1,1.7,1.6C17,21.5,17.2,22.4,17.2,23.3z"/>
		<path id="_Compound_Path_3_1_" d="M41.8,18.7c0,1.4-0.2,2.8-0.6,4.2c-0.3,1.2-0.9,2.4-1.7,3.4c-0.8,1-1.7,1.7-2.9,2.2
			c-1.2,0.6-2.6,0.8-4,0.8c-1.6,0-3.2-0.3-4.5-1.1c-1.3-0.7-2.3-1.8-3-3h-0.1c0,0,0,0.1,0,0.4s0,0.5,0,0.9c0,0.4,0,0.8,0,1.2
			s0,0.9,0,1.3V38h-2.8V13c0-0.5,0-1,0-1.5c0-0.5,0-0.9,0-1.3c0-0.4,0-0.7,0-1s0-0.4,0-0.5h2.5c0,0.2,0,0.3,0,0.5c0,0.3,0,0.6,0,1
			s0,0.8,0.1,1.3c0,0.4,0,0.8,0,1.2H25c0.7-1.3,1.8-2.4,3.1-3.2c1.5-0.8,3.2-1.2,4.9-1.1c1.3,0,2.7,0.2,3.9,0.8
			c1.1,0.5,2,1.3,2.7,2.2c0.7,1,1.3,2.1,1.6,3.3C41.5,15.9,41.8,17.3,41.8,18.7z M38.9,18.7c0-1.2-0.1-2.3-0.4-3.5
			c-0.2-1-0.7-1.8-1.3-2.6c-0.6-0.7-1.3-1.3-2.2-1.7c-1-0.4-2-0.6-3-0.6c-0.9,0-1.8,0.1-2.6,0.5c-0.8,0.3-1.6,0.8-2.2,1.5
			c-0.7,0.8-1.2,1.7-1.5,2.6c-0.4,1.3-0.6,2.6-0.6,4c0,1.3,0.2,2.7,0.6,3.9c0.3,1,0.8,1.8,1.5,2.6c0.6,0.6,1.4,1.1,2.2,1.4
			c0.8,0.3,1.7,0.4,2.6,0.4c2,0.1,3.9-0.7,5.2-2.2C38.5,23.2,39.1,21,38.9,18.7z"/>
		<path id="_Compound_Path_4_1_" d="M55.6,10.5c-0.9,0-1.7,0.2-2.4,0.7c-0.7,0.5-1.3,1.1-1.7,1.8c-0.5,0.8-0.8,1.7-1,2.6
			c-0.2,1-0.3,2-0.3,3.1v10.3h-2.8V13.7c0-0.5,0-1,0-1.5c0-0.6,0-1.1,0-1.6c0-0.5,0-0.9,0-1.3s0-0.6,0-0.7h2.4c0,0.1,0,4.4,0,4.6
			h0.1c0.2-0.8,0.6-1.5,0.9-2.2c0.3-0.6,0.8-1.1,1.3-1.5c0.5-0.4,1.1-0.7,1.7-0.9c0.7-0.2,1.4-0.3,2.2-0.3c0.5,0,1,0.1,1.4,0.2v2.2
			c-0.3-0.1-0.5-0.2-0.8-0.2C56.2,10.5,55.9,10.5,55.6,10.5z"/>
		<path id="_Compound_Path_5_1_" d="M62.1,3.1V0h2.8v3.1H62.1z M62.1,28.9V8.6h2.8v20.3H62.1z"/>
		<path id="_Compound_Path_6_1_" d="M87,28.9V17c0-0.9-0.1-1.8-0.3-2.6c-0.2-0.8-0.5-1.5-1-2.1c-0.5-0.6-1.1-1.1-1.8-1.4
			c-0.8-0.4-1.8-0.5-2.7-0.5c-0.9,0-1.8,0.2-2.7,0.6c-0.8,0.4-1.5,0.9-2.1,1.5c-0.6,0.7-1.1,1.4-1.4,2.3c-0.3,0.9-0.5,1.9-0.5,2.8
			v11.4h-2.8V13.2c0-0.4,0-0.9,0-1.4c0-0.5,0-1,0-1.4s0-0.8,0-1.1c0-0.3,0-0.5,0-0.6h2.4c0,0.1,0,4,0,4.3h0.1
			c0.8-1.4,1.9-2.6,3.3-3.5c1.4-0.8,2.9-1.2,4.5-1.1c1.2,0,2.4,0.2,3.5,0.7c0.9,0.4,1.7,1,2.3,1.8c0.6,0.8,1,1.6,1.3,2.6
			c0.3,1,0.4,2.1,0.4,3.1v12.5H87z"/>
		<path id="_Compound_Path_7_1_" d="M100.8,29.3c-1.2,0.1-2.4-0.3-3.2-1.1c-0.8-1-1.2-2.3-1.1-3.5V10.8h-2.7V8.6h2.8L97.4,4h1.8v4.7
			h4.7v2.1h-4.7v13.3c-0.1,0.8,0.2,1.6,0.7,2.3c0.5,0.5,1.2,0.8,2,0.7c0.4,0,0.8,0,1.2-0.1c0.4-0.1,0.8-0.1,1.2-0.2v2
			c-0.5,0.1-1.1,0.2-1.6,0.3C102,29.2,101.4,29.3,100.8,29.3z"/>
	</g>
	<path id="_Compound_Path_8_1_" class="st0" d="M128.1,18.7c0,1.4-0.2,2.8-0.5,4.2c-0.3,1.2-0.9,2.4-1.7,3.4c-0.8,1-1.7,1.7-2.8,2.2
		c-2.8,1.2-5.9,1.1-8.6-0.3c-1.3-0.7-2.3-1.7-3-3h-0.1c0,0.4,0,0.8,0,1.2c0,0.4,0,0.8-0.1,1.2l-0.1,0.9c0,0.1,0,0.3,0,0.4h-2.6
		c0-0.1,0-0.2,0-0.5c0-0.3,0-0.6,0-1c0-0.4,0-0.8,0-1.3s0-1,0-1.5V0h2.8v10.4c0,0.4,0,0.7,0,1.1c0,0.3,0,0.7,0,1.1h0.1
		c0.7-1.3,1.8-2.4,3.1-3.2c1.5-0.8,3.2-1.2,4.9-1.1c1.3,0,2.6,0.2,3.8,0.8c1.1,0.5,2,1.3,2.7,2.2c0.7,1,1.3,2.1,1.6,3.3
		C128,16,128.2,17.3,128.1,18.7z M125.3,18.7c0-1.2-0.1-2.3-0.4-3.5c-0.2-0.9-0.7-1.8-1.3-2.6c-0.6-0.7-1.3-1.3-2.2-1.7
		c-1-0.4-2-0.6-3-0.6c-0.9,0-1.8,0.1-2.6,0.4c-0.8,0.3-1.6,0.8-2.2,1.4c-0.7,0.8-1.2,1.6-1.5,2.6c-0.4,1.3-0.6,2.6-0.6,4
		c0,1.3,0.2,2.7,0.6,3.9c0.3,1,0.8,1.8,1.5,2.6c0.6,0.6,1.4,1.1,2.2,1.4c0.8,0.3,1.7,0.4,2.6,0.4c2,0.1,3.9-0.7,5.1-2.2
		C124.8,23.2,125.4,21,125.3,18.7L125.3,18.7z"/>
	<path id="_Compound_Path_9_1_" class="st0" d="M151.6,18.8c0,1.4-0.2,2.9-0.6,4.2c-0.4,1.2-1.1,2.4-1.9,3.3c-0.9,1-2,1.7-3.2,2.2
		c-1.4,0.6-2.9,0.8-4.5,0.8c-1.5,0-2.9-0.2-4.3-0.8c-1.2-0.5-2.3-1.2-3.1-2.2c-0.9-1-1.5-2.1-1.9-3.3c-0.4-1.4-0.7-2.8-0.7-4.3
		c0-1.4,0.2-2.8,0.6-4.2c0.4-1.2,1-2.4,1.9-3.3c0.9-1,2-1.7,3.2-2.2c1.4-0.6,2.9-0.8,4.5-0.8c1.6,0,3.2,0.2,4.6,0.8
		c1.2,0.5,2.3,1.2,3.1,2.2c0.8,1,1.4,2.1,1.8,3.3C151.5,16,151.7,17.4,151.6,18.8z M148.7,18.8c0-2.9-0.6-5-1.8-6.4
		c-1.4-1.4-3.3-2.2-5.3-2c-2-0.1-4,0.6-5.5,2.1c-1.3,1.4-1.9,3.5-1.9,6.3c0,1.3,0.1,2.5,0.5,3.7c0.3,1,0.8,1.9,1.5,2.6
		c0.6,0.7,1.4,1.2,2.2,1.6c0.9,0.4,1.9,0.5,2.9,0.5c2,0.1,4-0.6,5.5-2.1C148.1,23.8,148.7,21.7,148.7,18.8L148.7,18.8z"/>
</g>
</svg>
