<?xml version="1.0" encoding="UTF-8" standalone="no"?>
<!-- Created with Inkscape (http://www.inkscape.org/) -->
<svg
   xmlns:dc="http://purl.org/dc/elements/1.1/"
   xmlns:cc="http://web.resource.org/cc/"
   xmlns:rdf="http://www.w3.org/1999/02/22-rdf-syntax-ns#"
   xmlns:svg="http://www.w3.org/2000/svg"
   xmlns="http://www.w3.org/2000/svg"
   xmlns:sodipodi="http://sodipodi.sourceforge.net/DTD/sodipodi-0.dtd"
   xmlns:inkscape="http://www.inkscape.org/namespaces/inkscape"
   id="svg2"
   inkscape:version="0.45.1"
   width="600"
   height="600"
   version="1.0"
   sodipodi:version="0.32"
   sodipodi:docname="Roundel of none.svg"
   inkscape:output_extension="org.inkscape.output.svg.inkscape"
   sodipodi:docbase="C:\Documents and Settings\Flanker\Desktop">
  <defs
     id="defs8" />
  <sodipodi:namedview
     inkscape:window-height="1003"
     inkscape:window-width="1280"
     inkscape:pageshadow="2"
     inkscape:pageopacity="0.0"
     guidetolerance="10.0"
     gridtolerance="10.0"
     objecttolerance="10.0"
     borderopacity="1.0"
     bordercolor="#666666"
     pagecolor="#ffffff"
     id="base"
     inkscape:showpageshadow="false"
     inkscape:zoom="0.62833333"
     inkscape:cx="216.90384"
     inkscape:cy="211.62452"
     inkscape:window-x="-4"
     inkscape:window-y="-4"
     inkscape:current-layer="svg2" />
  <metadata
     id="metadata7">
    <rdf:RDF>
      <cc:Work
         rdf:about="">
        <dc:format>image/svg+xml</dc:format>
        <dc:type
           rdf:resource="http://purl.org/dc/dcmitype/StillImage" />
        <dc:title>Sin escudo</dc:title>
        <dc:creator>
          <cc:Agent>
            <dc:title>Thiemo Mättig</dc:title>
          </cc:Agent>
        </dc:creator>
        <dc:date>29. April 2006</dc:date>
        <cc:license
           rdf:resource="http://web.resource.org/cc/PublicDomain" />
      </cc:Work>
      <cc:License
         rdf:about="http://web.resource.org/cc/PublicDomain">
        <cc:permits
           rdf:resource="http://web.resource.org/cc/Reproduction" />
        <cc:permits
           rdf:resource="http://web.resource.org/cc/Distribution" />
        <cc:permits
           rdf:resource="http://web.resource.org/cc/DerivativeWorks" />
      </cc:License>
    </rdf:RDF>
  </metadata>
  <path
     sodipodi:type="arc"
     style="opacity:1;fill:#bbbbbb;fill-opacity:1;stroke:none;stroke-width:2;stroke-linecap:butt;stroke-linejoin:miter;stroke-miterlimit:4;stroke-dasharray:none;stroke-opacity:1"
     id="path2160"
     sodipodi:cx="-51.32626"
     sodipodi:cy="40.981434"
     sodipodi:rx="41.379311"
     sodipodi:ry="41.379311"
     d="M -9.946949 40.981434 A 41.379311 41.379311 0 1 1  -92.70557,40.981434 A 41.379311 41.379311 0 1 1  -9.946949 40.981434 z"
     transform="matrix(7.25,0,0,7.25,672.11538,2.8846064)" />
  <path
     transform="matrix(4.8333333,0,0,4.8333333,548.07692,101.92308)"
     d="M -9.946949 40.981434 A 41.379311 41.379311 0 1 1  -92.70557,40.981434 A 41.379311 41.379311 0 1 1  -9.946949 40.981434 z"
     sodipodi:ry="41.379311"
     sodipodi:rx="41.379311"
     sodipodi:cy="40.981434"
     sodipodi:cx="-51.32626"
     id="path2162"
     style="opacity:1;fill:#e3e3e3;fill-opacity:1;stroke:none;stroke-width:2;stroke-linecap:butt;stroke-linejoin:miter;stroke-miterlimit:4;stroke-dasharray:none;stroke-opacity:1"
     sodipodi:type="arc" />
  <path
     sodipodi:type="arc"
     style="opacity:1;fill:#bbbbbb;fill-opacity:1;stroke:none;stroke-width:2;stroke-linecap:butt;stroke-linejoin:miter;stroke-miterlimit:4;stroke-dasharray:none;stroke-opacity:1"
     id="path2164"
     sodipodi:cx="-51.32626"
     sodipodi:cy="40.981434"
     sodipodi:rx="41.379311"
     sodipodi:ry="41.379311"
     d="M -9.946949 40.981434 A 41.379311 41.379311 0 1 1  -92.70557,40.981434 A 41.379311 41.379311 0 1 1  -9.946949 40.981434 z"
     transform="matrix(2.4166667,0,0,2.4166667,424.03846,200.96154)" />
  <path
     id="path5023"
     style="fill:#ffffff;fill-opacity:1;fill-rule:nonzero;stroke:none;stroke-width:3.5;stroke-linecap:round;stroke-linejoin:miter;stroke-miterlimit:4;stroke-dashoffset:0;stroke-opacity:1"
     d="M 346.56077,501.72154 C 346.56077,532.59309 320.27614,557.69231 287.85846,557.69231 C 255.4923,557.69231 229.15614,532.59309 229.15614,501.72154 C 229.15614,470.85 255.4923,445.75077 287.85846,445.75077 C 320.27614,445.75077 346.56077,470.85 346.56077,501.72154 z M 291.82692,42.307696 L 298.73306,42.307696 C 337.49,42.307696 369.85615,52.615396 395.67691,73.076166 C 421.75538,93.536936 434.84615,120.6977 434.84615,154.55847 C 434.84615,177.75079 430.05308,197.38694 420.51845,213.51847 C 411.18998,229.44386 394.49153,248.25539 370.57769,269.90154 C 346.87,291.49617 331.51154,309.32848 324.3477,323.65617 C 317.18384,337.98385 313.57614,353.65155 313.57614,370.71078 C 313.57614,374.31847 315.22538,383.90461 318.57538,399.36615 L 249.92614,399.36615 L 243.17461,381.99771 C 239.36076,371.9477 237.40231,363.23771 237.40231,355.71308 C 237.40231,341.3854 239.46384,327.67615 243.48384,314.48231 C 247.81308,301.28848 254.04923,288.97078 262.1923,277.63233 C 270.33538,266.03617 286.41538,247.5854 310.32922,222.3831 C 334.50077,197.12925 346.56077,176.41078 346.56077,160.02154 C 346.56077,128.22233 324.65691,112.19386 280.84923,112.19386 C 259.56385,112.19386 237.40231,122.39847 214.20999,142.65308 L 177.15384,76.786916 C 206.58231,54.883086 244.82383,43.338466 291.82692,42.307696 z " />
</svg>
